<svg width="271" height="272" viewBox="0 0 271 272" fill="none" xmlns="http://www.w3.org/2000/svg">
<path d="M270.891 136.168C270.891 162.026 263.628 186.198 251.077 206.767C227.282 245.669 184.4 271.614 135.446 271.614C94.626 271.614 58.019 253.543 33.2077 224.984C12.5219 201.218 0 170.131 0 136.168C0 61.3566 60.6338 0.722778 135.446 0.722778C210.257 0.722778 270.891 61.3566 270.891 136.168Z" fill="#EDDDD6"/>
<path d="M148.926 98.6913C148.926 98.6913 170.774 88.3484 173.157 105.49C175.946 125.333 152.122 126.437 152.122 126.437L148.926 98.6913Z" fill="#F27E64"/>
<path d="M160.606 116.323C160.373 116.323 160.141 116.265 159.937 116.149C159.24 115.771 158.95 114.899 159.327 114.173L166.242 101.186C166.62 100.489 167.491 100.199 168.218 100.576C168.915 100.954 169.205 101.825 168.828 102.552L161.913 115.539C161.652 116.032 161.158 116.323 160.635 116.323H160.606Z" fill="black"/>
<path d="M162.755 112.318C161.971 112.318 161.332 111.679 161.302 110.895C161.302 110.081 161.913 109.442 162.726 109.413L169.06 109.268C169.844 109.268 170.512 109.878 170.541 110.691C170.541 111.505 169.931 112.144 169.118 112.173L162.784 112.318H162.755Z" fill="black"/>
<path d="M251.076 206.763C242.506 220.767 231.466 233.085 218.566 243.08C217.724 243.777 216.881 244.416 216.009 245.026C193.493 261.761 165.631 271.61 135.445 271.61C117.345 271.61 100.058 268.065 84.2826 261.615C83.382 261.238 82.4813 260.86 81.5807 260.453C62.8705 252.347 46.3683 240.145 33.2073 224.979C38.6402 208.1 48.7797 192.062 66.8508 181.894C112.987 155.949 182.075 155.949 212.813 170.534C231.698 179.482 244.162 195.52 251.076 206.763Z" fill="#7772D3"/>
<path d="M157.875 78.9922C157.875 78.9922 172.314 55.7207 169.38 45.7845C166.475 35.8484 153.459 45.5811 153.459 45.5811C153.459 45.5811 150.495 24.169 134.574 28.3236C113.365 33.8437 92.2729 71.235 92.2729 71.235C92.2729 71.235 81.4652 68.5331 77.8045 78.0044C73.5628 89.0446 77.2816 101.392 84.109 112.403C90.9365 123.414 109.385 114.321 109.385 114.321L157.875 78.9631V78.9922Z" fill="black"/>
<path d="M113.075 146.365L113.86 171.874C113.86 171.874 123.302 176.813 134.865 176.552C150.467 176.203 155.493 169.346 155.493 169.346L154.127 136.284L113.104 146.395L113.075 146.365Z" fill="#F27E64"/>
<path d="M113.075 145.786C113.075 145.786 122.953 164.932 140.53 161.62C154.708 158.947 154.127 138.843 154.127 138.843L113.046 145.786H113.075Z" fill="black"/>
<path d="M157.874 78.9874C157.874 78.9874 165.69 123.322 157.787 140.638C148.926 160.075 126.236 157.489 118.101 151.707C107.119 143.921 102.383 131.341 102.383 131.341C102.383 131.341 87.8565 134.827 82.5107 123.061C76.9035 110.713 85.6194 100.225 92.9408 99.3537C100.233 98.4821 101.163 99.7604 101.163 99.7604L98.4899 86.4541C98.4899 86.4541 141.111 35.2335 157.904 78.9584L157.874 78.9874Z" fill="#F27E64"/>
<path d="M101.135 99.7968C101.135 99.7968 110.636 100.145 121.356 91.6038C133.936 81.6095 131.961 65.0783 131.961 65.0783C131.961 65.0783 154.855 78.2103 160.549 95.4969C166.243 112.784 166.156 54.0962 140.822 56.2171C115.488 58.338 81.6989 74.8692 101.135 99.7677V99.7968Z" fill="black"/>
<path d="M99.4198 119.38C99.1002 119.38 98.7807 119.264 98.5192 119.06L86.8399 109.792C86.2007 109.299 86.1135 108.369 86.6074 107.759C87.1014 107.12 88.031 107.032 88.6412 107.526L100.321 116.794C100.96 117.288 101.047 118.218 100.553 118.828C100.262 119.177 99.8266 119.38 99.4198 119.38Z" fill="black"/>
<path d="M89.049 121.553C88.6133 121.553 88.2065 121.378 87.916 121.03C87.4221 120.42 87.5092 119.49 88.1193 118.996L94.5982 113.708C95.2083 113.214 96.138 113.302 96.6319 113.912C97.1258 114.522 97.0386 115.451 96.4285 115.945L89.9497 121.233C89.6882 121.465 89.3686 121.553 89.02 121.553H89.049Z" fill="black"/>
<path d="M123.65 106.391C122.923 106.391 122.284 105.839 122.197 105.083L121.5 97.9073C121.412 97.1229 121.993 96.3965 122.807 96.3094C123.591 96.2513 124.318 96.8033 124.405 97.6167L125.102 104.793C125.189 105.577 124.608 106.304 123.795 106.391C123.737 106.391 123.708 106.391 123.65 106.391Z" fill="black"/>
<path d="M151.54 105.345C150.814 105.345 150.175 104.793 150.087 104.038L149.39 96.8615C149.303 96.0771 149.884 95.3507 150.698 95.2636C151.511 95.2055 152.208 95.7575 152.296 96.571L152.993 103.747C153.08 104.532 152.499 105.258 151.685 105.345C151.627 105.345 151.598 105.345 151.54 105.345Z" fill="black"/>
<path d="M141.314 123.063C141.314 123.063 141.169 123.063 141.082 123.063C140.298 122.947 139.746 122.192 139.862 121.407C141.518 110.832 137.77 102.203 137.741 102.116C137.421 101.39 137.741 100.518 138.467 100.199C139.194 99.879 140.065 100.199 140.385 100.925C140.559 101.303 144.539 110.396 142.738 121.843C142.622 122.569 142.012 123.063 141.314 123.063Z" fill="black"/>
<path d="M153.981 90.3514C153.661 90.3514 153.341 90.2352 153.08 90.0318C151.104 88.4339 147.589 88.2596 146.398 88.3177C145.613 88.3468 144.916 87.7367 144.858 86.9522C144.829 86.1387 145.439 85.4705 146.223 85.4124C146.427 85.4124 151.656 85.1509 154.881 87.7657C155.491 88.2596 155.608 89.1893 155.114 89.7994C154.823 90.1481 154.416 90.3514 153.981 90.3514Z" fill="black"/>
<path d="M121.267 91.4261C120.831 91.4261 120.395 91.2228 120.105 90.8741C119.611 90.2349 119.727 89.3343 120.366 88.8404C123.649 86.2837 128.85 86.6323 129.082 86.6323C129.867 86.6904 130.477 87.3877 130.419 88.1722C130.36 88.9856 129.721 89.5667 128.879 89.5086C128.821 89.5086 124.55 89.2471 122.167 91.1065C121.906 91.3099 121.586 91.3971 121.267 91.3971V91.4261Z" fill="black"/>
<path d="M97.7349 99.998C97.7349 99.998 102.848 112.985 104.533 112.375C106.218 111.764 102.529 91.1368 97.5606 90.4976C92.5635 89.8585 97.7349 99.998 97.7349 99.998Z" fill="black"/>
<path d="M134.952 177.948C121.471 177.948 108.92 172.051 108.688 171.963C107.962 171.615 107.671 170.743 108.02 170.017C108.368 169.291 109.24 168.971 109.966 169.32C110.315 169.494 146.196 186.316 159.705 161.475C160.083 160.778 160.984 160.517 161.681 160.894C162.378 161.272 162.64 162.173 162.262 162.87C155.899 174.578 145.15 177.948 134.981 177.948H134.952Z" fill="#FFBF69"/>
<path d="M136.026 134.25C131.755 134.25 129.431 131.635 128.733 129.921C128.443 129.166 128.792 128.323 129.547 128.033C130.273 127.742 131.116 128.091 131.435 128.817C131.61 129.195 133.208 132.478 138.67 130.967C139.425 130.764 140.238 131.199 140.471 131.984C140.674 132.768 140.238 133.553 139.454 133.785C138.205 134.134 137.043 134.279 136.026 134.279V134.25Z" fill="black"/>
<path d="M87.5668 244.393L84.2837 261.622C83.3831 261.244 82.4824 260.866 81.5818 260.46L84.7486 243.841C84.8939 243.057 85.6492 242.534 86.4627 242.679C87.2472 242.853 87.7411 243.58 87.5668 244.393Z" fill="#FFBF69"/>
</svg>
