<svg width="272" height="272" viewBox="0 0 272 272" fill="none" xmlns="http://www.w3.org/2000/svg">
<path d="M271.366 136.168C271.366 150.317 269.216 163.972 265.178 176.785C259.019 196.366 248.56 214.031 234.876 228.644C234.585 228.993 234.295 229.313 233.975 229.632C233.568 230.068 233.132 230.504 232.726 230.91C208.147 256.012 173.864 271.614 135.921 271.614C130.052 271.614 124.212 271.236 118.547 270.539C118.489 270.51 118.46 270.51 118.402 270.51C104.456 268.679 91.15 264.757 78.8605 259.034C77.8437 258.569 76.8268 258.075 75.8099 257.581C55.7924 247.674 38.5929 232.915 25.7224 214.873C24.6184 213.304 23.5144 211.735 22.4684 210.108C19.8537 206.157 17.4713 202.061 15.3214 197.848C5.82102 179.341 0.47525 158.394 0.47525 136.168C0.47525 61.3566 61.1091 0.722778 135.921 0.722778C210.733 0.722778 271.366 61.3566 271.366 136.168Z" fill="#EDDDD6"/>
<path d="M234.877 228.618C234.587 228.967 234.296 229.286 233.977 229.606C233.57 230.042 233.134 230.478 232.728 230.884C208.149 255.986 173.866 271.588 135.923 271.588C130.054 271.588 124.214 271.21 118.549 270.513C118.491 270.484 118.462 270.484 118.404 270.484C104.458 268.653 91.1518 264.731 78.8624 259.008C80.0245 209.937 79.5306 166.997 79.5306 166.183C79.9954 165.166 102.715 159.327 132.959 158.339C180.548 156.828 220.758 183.673 234.877 228.618Z" fill="#507849"/>
<path d="M118.547 270.531C118.547 270.531 118.46 270.501 118.402 270.501C104.456 268.671 91.1501 264.749 78.8606 259.025C77.8437 258.561 76.8269 258.067 75.81 257.573C55.7924 247.666 38.593 232.907 25.7225 214.865C51.8122 179.1 73.1371 168.67 79.5288 166.201C80.8362 165.678 81.5044 165.504 81.5044 165.504L118.547 270.531Z" fill="#507849"/>
<path d="M136.446 78.7455C136.446 78.7455 167.707 80.2272 169.479 50.2444C171.368 18.315 141.821 15.2645 129.27 28.1641C116.719 41.0636 119.043 54.1956 119.043 54.1956C119.043 54.1956 110.298 46.3223 100.769 55.9969C93.7669 63.115 97.3695 74.7071 97.3695 74.7071C97.3695 74.7071 81.245 74.097 82.7558 88.1587C84.2665 102.249 94.3189 109.397 94.3189 109.397L136.417 78.7165L136.446 78.7455Z" fill="#E56445"/>
<path d="M107.857 133.928L111.111 167.165C111.111 167.165 118.026 176.142 137.637 175.823C152.221 175.59 156.986 171.813 156.986 171.813L153.325 155.195L149.723 138.983L113.871 134.683L107.857 133.957V133.928Z" fill="#FCA397"/>
<path d="M113.87 134.713C114.045 135.614 114.48 136.66 115.149 137.822C124.213 153.685 144.899 155.283 153.324 155.225L149.722 139.013L113.87 134.713Z" fill="black"/>
<path d="M149.723 62.4992C149.723 62.4992 171.251 102.447 166.631 126.271C162.012 150.094 140.513 148.177 127.439 144.719C114.365 141.262 107.857 133.97 107.857 133.97C107.857 133.97 96.323 138.967 87.4908 128.595C78.6587 118.223 82.4937 105.149 89.0307 101.692C95.5676 98.2345 104.022 102.447 104.022 102.447L96.7297 90.9131C96.7297 90.9131 118.258 27.5193 149.752 62.4702L149.723 62.4992Z" fill="#FCA397"/>
<path d="M104.398 120.654C104.165 120.654 103.904 120.596 103.671 120.451L90.4813 112.81C89.784 112.403 89.5516 111.531 89.9584 110.834C90.3651 110.137 91.2367 109.904 91.934 110.311L105.124 117.952C105.821 118.359 106.054 119.23 105.647 119.928C105.386 120.393 104.892 120.654 104.398 120.654Z" fill="black"/>
<path d="M93.6481 121.815C93.1251 121.815 92.6312 121.524 92.3697 121.03C91.992 120.333 92.2826 119.432 92.9798 119.084L99.6911 115.568C100.388 115.191 101.289 115.481 101.638 116.178C102.015 116.876 101.725 117.776 101.028 118.125L94.3163 121.64C94.1129 121.757 93.8805 121.815 93.6481 121.815Z" fill="black"/>
<path d="M155.561 78.1645C155.27 78.1645 155.009 78.0773 154.747 77.903C151.028 75.4044 147.629 77.7868 147.484 77.903C146.845 78.3678 145.915 78.2226 145.45 77.5834C144.985 76.9442 145.131 76.0436 145.77 75.5497C145.973 75.4044 150.941 71.8599 156.374 75.5206C157.042 75.9564 157.217 76.8571 156.781 77.5253C156.49 77.932 156.055 78.1645 155.59 78.1645H155.561Z" fill="black"/>
<path d="M151.09 116.029C151.09 116.029 150.916 116.029 150.8 116.029C150.015 115.884 149.492 115.099 149.638 114.315C152.049 101.909 144.844 93.8324 144.786 93.7743C144.234 93.1932 144.292 92.2636 144.873 91.7116C145.454 91.1595 146.384 91.2177 146.936 91.7987C147.284 92.1764 155.187 101.038 152.514 114.867C152.369 115.564 151.759 116.029 151.09 116.029Z" fill="black"/>
<path d="M155.593 97.7847C154.808 97.7847 154.169 97.1746 154.14 96.3901L153.791 88.4587C153.762 87.6452 154.372 86.9769 155.186 86.9479C155.999 86.9188 156.668 87.5289 156.697 88.3424L157.045 96.2739C157.074 97.0874 156.464 97.7556 155.651 97.7847C155.651 97.7847 155.622 97.7847 155.593 97.7847Z" fill="black"/>
<path d="M133.771 99.8707C132.987 99.8707 132.348 99.2606 132.319 98.4762L131.97 90.5447C131.941 89.7312 132.551 89.063 133.365 89.0339C134.178 88.9758 134.846 89.615 134.875 90.4285L135.224 98.36C135.253 99.1735 134.643 99.8417 133.83 99.8707C133.83 99.8707 133.801 99.8707 133.771 99.8707Z" fill="black"/>
<path d="M154.133 71.559C154.133 71.559 149.862 65.2254 141.582 65.9808C133.273 66.7362 129.031 73.0407 129.031 73.0407C129.031 73.0407 134.028 86.6375 123.482 95.1501C112.936 103.663 104.016 102.442 104.016 102.442L95.562 100.322L88.3859 88.9618L109.537 61.1579L138.561 42.012L155.557 54.6501L154.133 71.5299V71.559Z" fill="#E56445"/>
<path d="M144.197 124.527C141.35 124.527 136.382 123.713 133.331 118.571C132.925 117.873 133.157 117.002 133.825 116.566C134.523 116.159 135.394 116.392 135.83 117.06C139.171 122.667 145.592 121.534 145.853 121.476C146.638 121.331 147.393 121.854 147.538 122.638C147.684 123.423 147.19 124.178 146.405 124.352C146.289 124.352 145.447 124.527 144.197 124.527Z" fill="black"/>
<path d="M164.338 109.755C156.523 109.755 150.19 103.218 150.19 95.1702C150.19 87.1225 156.552 80.5856 164.338 80.5856C172.125 80.5856 178.487 87.1225 178.487 95.1702C178.487 103.218 172.125 109.755 164.338 109.755ZM164.338 83.4909C158.121 83.4909 153.095 88.7204 153.095 95.1702C153.095 101.62 158.15 106.85 164.338 106.85C170.527 106.85 175.582 101.62 175.582 95.1702C175.582 88.7204 170.527 83.4909 164.338 83.4909Z" fill="white"/>
<path d="M130.691 113.033C122.643 113.033 116.106 106.496 116.106 98.4481C116.106 90.4004 122.643 83.8634 130.691 83.8634C138.738 83.8634 145.275 90.4004 145.275 98.4481C145.275 106.496 138.738 113.033 130.691 113.033ZM130.691 86.7687C124.241 86.7687 119.011 91.9983 119.011 98.4481C119.011 104.898 124.241 110.127 130.691 110.127C137.14 110.127 142.37 104.898 142.37 98.4481C142.37 91.9983 137.14 86.7687 130.691 86.7687Z" fill="white"/>
<path d="M142.426 98.3663C141.671 98.3663 141.031 97.7853 140.973 97.0299C140.915 96.2455 141.496 95.5191 142.31 95.461L152.595 94.6185C153.408 94.5604 154.105 95.1415 154.163 95.955C154.222 96.7394 153.64 97.4657 152.827 97.5238L142.542 98.3663C142.542 98.3663 142.455 98.3663 142.426 98.3663Z" fill="white"/>
<path d="M95.5382 101.816C95.1895 101.816 94.8118 101.671 94.5503 101.409C93.9693 100.857 93.9402 99.9274 94.4922 99.3463C102.308 91.0371 117.56 98.7072 118.229 99.0558C118.955 99.4335 119.216 100.305 118.868 101.002C118.519 101.729 117.619 101.99 116.921 101.642C116.776 101.583 102.947 94.6397 96.6422 101.351C96.3516 101.642 95.974 101.816 95.5963 101.816H95.5382Z" fill="white"/>
<path d="M138.016 176.124C128.631 176.124 117.737 173.741 107.132 165.955C106.493 165.49 106.348 164.561 106.813 163.921C107.277 163.282 108.207 163.137 108.846 163.602C134.5 182.457 162.188 167.756 162.449 167.611C163.147 167.233 164.047 167.495 164.425 168.192C164.803 168.889 164.541 169.79 163.844 170.168C163.669 170.255 152.687 176.095 137.987 176.095L138.016 176.124Z" fill="white"/>
<path d="M123.485 82.8554C123.224 82.8554 122.962 82.7973 122.701 82.623C122.032 82.1872 121.829 81.3156 122.236 80.6183C126.216 74.2848 132.404 74.7496 135.106 75.9117C135.833 76.2313 136.181 77.0739 135.891 77.8002C135.571 78.5556 134.729 78.8752 134.002 78.5846C133.741 78.4684 128.337 76.3766 124.705 82.1582C124.415 82.5939 123.95 82.8264 123.485 82.8264V82.8554Z" fill="black"/>
</svg>
