<svg width="272" height="272" viewBox="0 0 272 272" fill="none" xmlns="http://www.w3.org/2000/svg">
<path d="M271.842 136.168C271.842 154.356 268.268 171.7 261.761 187.534C246.045 225.855 213.248 255.402 172.839 266.646C170.079 267.43 167.262 268.127 164.415 268.709C155.38 270.626 145.997 271.614 136.411 271.614C131.617 271.614 126.882 271.381 122.205 270.888C119.155 270.568 116.134 270.132 113.142 269.609C109.191 268.912 105.327 268.069 101.492 267.053C96.3216 265.687 91.2378 264.002 86.3284 262.026C74.9698 257.523 64.3666 251.509 54.751 244.246C39.4417 232.683 26.6888 217.924 17.4509 200.986C6.93478 181.724 0.9505 159.643 0.9505 136.168C0.9505 61.3566 61.6069 0.722778 136.411 0.722778C211.214 0.722778 271.842 61.3566 271.842 136.168Z" fill="#EDDDD6"/>
<path d="M172.839 266.649C161.248 269.903 149.018 271.617 136.41 271.617C128.48 271.617 120.694 270.949 113.141 269.613C109.19 268.916 105.327 268.073 101.492 267.056C96.3212 265.691 91.2374 264.006 86.328 262.03L95.9435 165.196L148.379 152.819L169.237 159.008L172.839 266.649Z" fill="#F7734F"/>
<path d="M103.874 66.9929C103.874 66.9929 83.9751 42.472 89.3494 39.2181C94.7236 35.9932 99.8074 40.9322 99.8074 40.9322C99.8074 40.9322 140.361 34.5406 155.148 38.7533C169.934 42.966 179.84 67.1672 179.84 67.1672C179.84 67.1672 187.248 66.4699 190.385 76.6094C193.523 86.7199 171.706 136.517 157.733 133.902C143.789 131.287 103.816 66.9929 103.816 66.9929H103.874Z" fill="black"/>
<path d="M157.617 125.881L158.315 159.757C158.315 159.757 152.418 169.606 132.634 171.639C117.906 173.15 112.648 169.896 112.648 169.896L114.362 152.697L116.047 135.933L151.662 127.334L157.647 125.881H157.617Z" fill="#FCA397"/>
<path d="M151.662 127.336C151.604 128.265 151.255 129.369 150.733 130.618C143.499 147.7 122.845 151.738 114.362 152.696L116.047 135.935L151.662 127.336Z" fill="black"/>
<path d="M106.925 58.8906C106.925 58.8906 90.0178 101.715 97.4836 125.161C104.979 148.607 126.417 144.103 139.17 139.077C151.923 134.051 157.617 125.916 157.617 125.916C157.617 125.916 169.818 129.577 177.487 118.072C185.156 106.567 179.724 93.8706 172.723 91.1686C165.722 88.4667 157.733 93.7253 157.733 93.7253L163.718 81.2325C163.718 81.2325 134.493 19.9304 106.925 58.9197V58.8906Z" fill="#FCA397"/>
<path d="M106.925 58.8849C106.925 58.8849 120.113 53.5682 125.72 58.2167C131.356 62.8652 137.979 102.116 157.733 93.6905C177.487 85.2651 167.262 60.1051 167.262 60.1051C167.262 60.1051 117.557 17.5423 106.896 58.8849H106.925Z" fill="black"/>
<path d="M114.361 152.704C114.361 152.704 108.174 209.822 101.492 267.057C65.2667 257.44 35.0257 233.181 17.4504 200.99C28.1989 189.717 45.3966 170.862 60.2411 164.848C86.1537 154.331 114.361 152.704 114.361 152.704Z" fill="#507849"/>
<path d="M128.393 173.356C119.649 173.356 112.822 171.439 112.241 171.264C111.486 171.032 111.021 170.248 111.253 169.463C111.486 168.679 112.299 168.243 113.054 168.475C113.345 168.563 142.046 176.58 157.21 158.802C157.733 158.192 158.663 158.134 159.244 158.628C159.854 159.15 159.941 160.08 159.418 160.69C150.703 170.916 138.299 173.356 128.393 173.356Z" fill="white"/>
<path d="M261.762 187.534C246.046 225.855 213.248 255.402 172.84 266.645C170.08 267.43 167.262 268.127 164.415 268.708C160.29 224.053 158.111 145.668 158.111 145.668C158.111 145.668 216.792 142.472 261.762 187.534Z" fill="#507849"/>
<path d="M159.273 112.581C158.924 112.581 158.546 112.435 158.256 112.174C157.675 111.622 157.675 110.692 158.227 110.111L168.888 99.0724C169.44 98.4914 170.37 98.4914 170.951 99.0433C171.532 99.5953 171.532 100.525 170.98 101.106L160.318 112.145C160.028 112.435 159.65 112.581 159.273 112.581Z" fill="black"/>
<path d="M173.682 109.875C173.682 109.875 173.45 109.875 173.304 109.816L164.095 107.405C163.311 107.202 162.846 106.418 163.05 105.633C163.253 104.849 164.037 104.384 164.822 104.587L174.031 106.999C174.815 107.202 175.28 107.986 175.076 108.771C174.902 109.41 174.321 109.845 173.682 109.845V109.875Z" fill="black"/>
<path d="M104.136 78.1197C103.817 78.1197 103.526 78.0325 103.265 77.8292C102.626 77.3353 102.509 76.4638 102.974 75.8247C103.09 75.6795 105.879 72.0482 112.851 73.065C113.636 73.1812 114.188 73.9074 114.071 74.7208C113.955 75.5052 113.2 76.0571 112.415 75.9409C107.245 75.1856 105.356 77.4806 105.269 77.5677C104.979 77.9163 104.543 78.1197 104.107 78.1197H104.136Z" fill="black"/>
<path d="M136.033 78.5287C135.714 78.5287 135.365 78.4124 135.103 78.18C131.356 75.0717 127.057 76.2046 127.028 76.2337C126.243 76.437 125.459 76.0013 125.227 75.2169C125.023 74.4326 125.459 73.6482 126.243 73.4158C126.476 73.3577 132.082 71.8471 136.963 75.9432C137.573 76.4661 137.66 77.3667 137.137 77.9767C136.847 78.3253 136.44 78.4996 136.033 78.4996V78.5287Z" fill="black"/>
<path d="M105.531 94.9941C104.601 94.936 104.02 94.2097 104.078 93.4254L104.717 85.5529C104.775 84.7395 105.443 84.1875 106.286 84.2165C107.07 84.2746 107.68 84.9719 107.622 85.7853L106.983 93.6578C106.925 94.4131 106.286 94.9941 105.531 94.9941Z" fill="black"/>
<path d="M128.857 95.9571C127.927 95.899 127.346 95.1727 127.405 94.3883L128.044 86.5158C128.102 85.7315 128.77 85.1505 129.612 85.1795C130.397 85.2376 131.007 85.9348 130.949 86.7482L130.31 94.6208C130.251 95.3761 129.612 95.9571 128.857 95.9571Z" fill="black"/>
<path d="M111.194 113.822C110.642 113.822 110.119 113.503 109.858 112.951C104.919 101.883 112.327 92.9643 112.647 92.5866C113.17 91.9766 114.07 91.8894 114.68 92.4123C115.29 92.9352 115.377 93.8358 114.855 94.4458C114.593 94.7654 108.318 102.376 112.502 111.731C112.821 112.457 112.502 113.328 111.775 113.648C111.572 113.735 111.369 113.764 111.194 113.764V113.822Z" fill="black"/>
<path d="M120.433 120.885C119.62 120.885 118.981 120.246 118.981 119.432C118.981 118.619 119.62 117.98 120.433 117.98C120.636 117.98 125.575 117.893 127.318 113.681C127.637 112.925 128.48 112.577 129.206 112.896C129.932 113.216 130.281 114.058 129.99 114.784C127.463 120.827 120.695 120.885 120.433 120.885Z" fill="black"/>
</svg>
