<svg width="407" height="407" viewBox="0 0 407 407" fill="none" xmlns="http://www.w3.org/2000/svg">
<path d="M406.762 203.168C406.762 243.305 395.128 280.74 374.996 312.292C360.486 335.04 341.574 354.695 319.438 370.078C307.586 378.315 294.818 385.331 281.31 390.953C257.387 400.846 231.155 406.337 203.616 406.337C202.047 406.337 200.435 406.337 198.823 406.293C149.932 405.16 105.311 386.769 70.843 356.961C64.8296 351.775 59.1649 346.24 53.8051 340.401C20.6446 304.273 0.425781 256.074 0.425781 203.168C0.425781 90.9507 91.4104 0 203.616 0C315.821 0 406.762 90.9507 406.762 203.168Z" fill="#EDDDD6"/>
<path d="M319.439 370.076C307.586 378.313 294.819 385.329 281.311 390.951C257.388 400.843 231.156 406.334 203.616 406.334C202.048 406.334 200.435 406.334 198.823 406.291C149.932 405.158 105.311 386.767 70.8435 356.959C64.8301 351.773 59.1654 346.238 53.8057 340.398C68.0983 309.413 101.259 250.973 153.113 236.94C153.723 236.766 154.333 236.635 154.9 236.461C214.902 221.295 296.3 235.458 312.51 247.617C319.177 253.108 320.354 307.626 319.439 370.076Z" fill="#7C6053"/>
<path d="M167.143 128.166C167.143 128.166 133.373 86.4167 147.534 69.8129C161.696 53.2091 183.614 69.8129 183.614 69.8129C183.614 69.8129 184.834 50.2021 206.666 52.2503C228.497 54.255 241.656 77.5701 241.656 77.5701C241.656 77.5701 260.873 58.3515 274.033 77.5701C287.192 96.7887 278.085 128.166 278.085 128.166C278.085 128.166 293.249 125.9 289.197 143.724C285.144 161.548 261.265 179.939 261.265 179.939L167.1 128.166H167.143Z" fill="black"/>
<path d="M241.046 193.93L241.7 241.035C241.7 241.035 233.377 254.674 205.881 257.288C185.401 259.249 178.124 254.674 178.124 254.674L180.651 230.795L183.178 207.482L232.767 195.847L241.09 193.887L241.046 193.93Z" fill="#FCA397"/>
<path d="M232.724 195.889C232.637 197.197 232.158 198.722 231.417 200.465C221.177 224.126 192.461 229.573 180.608 230.793L183.136 207.48L232.724 195.846V195.889Z" fill="black"/>
<path d="M171.154 100.277C171.154 100.277 147.231 159.676 157.428 192.317C167.625 224.958 197.473 218.944 215.252 212.059C233.031 205.173 241.048 193.93 241.048 193.93C241.048 193.93 257.999 199.116 268.762 183.209C279.525 167.303 272.117 149.566 262.4 145.731C252.683 141.896 241.528 149.13 241.528 149.13L249.981 131.829C249.981 131.829 209.936 46.3255 171.198 100.234L171.154 100.277Z" fill="#FCA397"/>
<path d="M243.575 174.885C242.921 174.885 242.268 174.58 241.832 174.014C241.135 173.055 241.309 171.661 242.311 170.963L260.046 157.847C261.005 157.15 262.356 157.324 263.096 158.283C263.794 159.242 263.619 160.636 262.617 161.333L244.882 174.449C244.49 174.754 244.054 174.885 243.575 174.885Z" fill="black"/>
<path d="M262.921 174.361C262.921 174.361 262.572 174.361 262.398 174.317L248.366 170.918C247.19 170.657 246.493 169.437 246.754 168.304C247.059 167.127 248.192 166.43 249.369 166.691L263.4 170.09C264.576 170.352 265.274 171.572 265.012 172.705C264.751 173.707 263.879 174.361 262.877 174.361H262.921Z" fill="black"/>
<path d="M209.367 127.902C208.452 127.902 207.624 127.336 207.319 126.464C204.095 117.444 196.077 118.752 195.728 118.795C194.552 119.013 193.419 118.229 193.201 117.009C192.983 115.832 193.767 114.699 194.944 114.481C199.04 113.74 207.842 114.917 211.415 124.983C211.808 126.116 211.241 127.379 210.108 127.772C209.847 127.859 209.629 127.902 209.367 127.902Z" fill="black"/>
<path d="M165.226 123.283C164.616 123.283 164.006 123.022 163.57 122.499C162.785 121.584 162.916 120.19 163.831 119.405C165.923 117.619 171.457 112.913 173.984 115.745C174.769 116.66 174.681 118.011 173.81 118.839C173.244 119.362 172.459 119.492 171.762 119.275C171.283 119.405 169.801 120.059 166.664 122.717C166.271 123.066 165.749 123.24 165.269 123.24L165.226 123.283Z" fill="black"/>
<path d="M173.767 167.998C173.114 167.998 172.46 167.693 172.024 167.127C164.355 157.104 179.083 141.243 179.694 140.589C180.521 139.718 181.872 139.674 182.787 140.502C183.659 141.33 183.702 142.681 182.874 143.596C179.301 147.431 170.979 158.629 175.467 164.512C176.208 165.471 175.99 166.822 175.074 167.562C174.682 167.867 174.203 167.998 173.767 167.998Z" fill="black"/>
<path d="M169.933 146.992C169.933 146.992 169.715 146.992 169.628 146.992C168.451 146.818 167.624 145.728 167.798 144.508L169.366 133.44C169.541 132.264 170.674 131.436 171.85 131.61C173.027 131.784 173.855 132.874 173.68 134.094L172.112 145.162C171.937 146.251 171.022 147.036 169.977 147.036L169.933 146.992Z" fill="black"/>
<path d="M202.353 147.039C201.002 146.952 200.087 145.906 200.174 144.73L200.871 133.574C200.959 132.398 201.874 131.483 203.181 131.526C204.401 131.614 205.316 132.659 205.229 133.836L204.532 144.991C204.445 146.124 203.486 147.039 202.353 147.039Z" fill="black"/>
<path d="M166.402 113.655C166.402 113.655 171.37 104.111 183.135 103.893C194.9 103.675 201.873 111.825 201.873 111.825C201.873 111.825 196.992 131.697 213.115 141.982C229.238 152.267 241.569 149.173 241.569 149.173L253.117 144.902L261.396 127.862L227.407 92.1704L183.702 69.8577L161.871 90.2094L166.49 113.655H166.402Z" fill="black"/>
<path d="M186.447 186.604C185.924 186.604 185.576 186.604 185.532 186.604C184.355 186.516 183.44 185.471 183.527 184.25C183.615 183.074 184.66 182.115 185.881 182.246C186.273 182.246 195.336 182.856 199.127 174.577C199.607 173.487 200.914 173.008 202.003 173.487C203.093 173.967 203.572 175.274 203.093 176.363C198.822 185.819 189.497 186.604 186.491 186.604H186.447Z" fill="black"/>
<path d="M374.996 312.29C360.486 335.038 341.574 354.693 319.438 370.076C307.586 378.313 294.818 385.329 281.31 390.951L312.51 247.618C314.645 249.099 347.936 272.589 374.996 312.29Z" fill="#7C6053"/>
<path d="M198.909 259.73C183.963 259.73 172.284 256.418 171.718 256.244C170.585 255.895 169.888 254.719 170.236 253.542C170.585 252.366 171.762 251.712 172.938 252.061C173.069 252.061 188.32 256.375 205.707 255.111C225.664 253.629 244.75 239.424 244.924 239.293C245.883 238.552 247.233 238.77 247.974 239.729C248.715 240.688 248.497 242.038 247.538 242.779C246.71 243.389 227.276 257.9 206.011 259.468C203.571 259.643 201.218 259.73 198.909 259.73Z" fill="#FFBF69"/>
</svg>
