<svg width="272" height="272" viewBox="0 0 272 272" fill="none" xmlns="http://www.w3.org/2000/svg">
<path d="M271.238 136.183C271.238 164.971 262.261 191.668 246.923 213.601C238.469 225.773 228.011 236.492 216.072 245.237C216.014 245.324 215.926 245.353 215.868 245.411C215.084 245.992 214.3 246.573 213.486 247.096C198.787 257.437 181.938 264.903 163.753 268.709C154.747 270.626 145.393 271.614 135.807 271.614C113.816 271.614 93.0741 266.385 74.7145 257.06C64.1113 251.715 54.3214 245.004 45.5483 237.161C40.8422 232.919 36.3976 228.388 32.3015 223.536C25.591 215.606 19.781 206.92 15.0168 197.595C5.63366 179.148 0.346558 158.29 0.346558 136.183C0.346558 61.3792 61.0029 0.722778 135.807 0.722778C210.61 0.722778 271.238 61.3792 271.238 136.183Z" fill="#EDDDD6"/>
<path d="M246.923 213.602C238.411 225.832 227.895 236.609 215.869 245.411C200.617 256.625 182.926 264.701 163.753 268.71C163.869 243.581 165.264 223.624 165.264 223.624C165.264 223.624 207.502 162.735 208.083 163.229C212.644 166.977 229.9 181.966 246.923 213.602Z" fill="#46467F"/>
<path d="M215.869 245.416C200.617 256.629 182.926 264.705 163.753 268.714C154.748 270.631 145.393 271.619 135.807 271.619C113.816 271.619 93.0744 266.39 74.7149 257.065C64.1116 251.72 54.3218 245.009 45.5487 237.166C40.8426 232.924 36.3979 228.393 32.3019 223.541C40.5811 195.421 58.7374 174.04 64.1697 167.882C65.5351 166.313 67.1038 164.889 68.7887 163.582C68.8177 163.524 68.8758 163.524 68.9049 163.495C75.964 158.005 85.4052 154.46 94.7303 152.136C94.8174 152.136 94.8755 152.107 94.9046 152.107C106.292 149.319 117.418 148.36 123.78 148.04C127.179 147.866 129.213 147.866 129.213 147.866C129.213 147.866 146.701 149.58 165.583 152.543C182.461 155.187 200.443 158.818 208.025 163.175C208.403 163.408 208.722 163.786 209.042 164.279C213.312 171.193 215.201 205.414 215.869 245.416Z" fill="#46467F"/>
<path d="M94.9332 85.7516C94.9332 85.7516 96.0662 106.087 105.217 107.016C114.368 107.946 127.818 96.3838 127.818 96.3838L121.514 73.5215L94.9332 85.7806V85.7516Z" fill="black"/>
<path d="M121.339 123.718L121.775 155.615C121.775 155.615 127.905 164.766 147.455 166.189C162.009 167.264 167.093 164.098 167.093 164.098L164.856 147.946L162.648 132.201L127.295 124.938L121.368 123.718H121.339Z" fill="#FCA397"/>
<path d="M129.213 125.115C129.3 125.987 129.648 127.004 130.171 128.195C137.434 144.056 156.984 147.31 165.002 147.949L162.94 132.233L129.213 125.115Z" fill="black"/>
<path d="M169.418 59.4882C169.418 59.4882 186.499 99.3157 180.108 121.568C173.717 143.82 153.411 140.189 141.268 135.802C129.126 131.416 123.548 123.921 123.548 123.921C123.548 123.921 112.16 127.697 104.636 117.094C97.1125 106.491 101.877 94.3772 108.384 91.6465C114.891 88.9158 122.56 93.651 122.56 93.651L116.605 82.06C116.605 82.06 142.43 23.5824 169.418 59.4882Z" fill="#FCA397"/>
<path d="M121.514 111.053C121.224 111.053 120.933 110.966 120.672 110.791L106.205 100.595C105.537 100.13 105.392 99.2294 105.856 98.5612C106.321 97.8931 107.222 97.7478 107.89 98.2126L122.357 108.409C123.025 108.874 123.17 109.775 122.705 110.443C122.415 110.849 121.979 111.053 121.514 111.053Z" fill="black"/>
<path d="M108.413 110.997C107.774 110.997 107.193 110.561 107.019 109.922C106.815 109.138 107.28 108.354 108.036 108.15L117.477 105.623C118.232 105.449 119.045 105.884 119.249 106.64C119.452 107.424 118.987 108.208 118.232 108.412L108.791 110.939C108.791 110.939 108.529 110.997 108.413 110.997Z" fill="black"/>
<path d="M141.849 78.7772C141.588 78.7772 141.326 78.7192 141.094 78.5739C140.397 78.1672 140.193 77.2667 140.6 76.5695C144.289 70.3818 150.245 70.7304 152.888 71.7762C153.643 72.0667 153.992 72.9092 153.702 73.6645C153.411 74.4198 152.569 74.7684 151.813 74.4779C151.581 74.3907 146.41 72.5025 143.098 78.0801C142.837 78.5449 142.343 78.7772 141.849 78.7772Z" fill="black"/>
<path d="M173.746 74.9752C173.427 74.9752 173.107 74.859 172.846 74.6557C169.563 71.9831 166.164 73.9294 166.019 74.0166C165.322 74.4233 164.45 74.1908 164.043 73.5227C163.637 72.8255 163.84 71.954 164.537 71.5473C164.741 71.4311 169.795 68.468 174.676 72.4188C175.286 72.9126 175.402 73.8422 174.879 74.4523C174.589 74.8009 174.182 74.9752 173.746 74.9752Z" fill="black"/>
<path d="M168.169 108.875C168.169 108.875 167.907 108.875 167.791 108.817C167.007 108.614 166.542 107.8 166.774 107.045C168.779 99.5502 163.521 88.2789 163.462 88.1627C163.114 87.4364 163.433 86.5649 164.16 86.2163C164.886 85.8677 165.757 86.1873 166.106 86.9135C166.338 87.4074 171.887 99.2598 169.592 107.8C169.418 108.44 168.837 108.875 168.198 108.875H168.169Z" fill="black"/>
<path d="M170.841 90.2902C170.202 90.2902 169.621 89.8835 169.447 89.2444L167.384 81.9528C167.152 81.1684 167.617 80.3841 168.401 80.1517C169.156 79.9483 169.97 80.3841 170.202 81.1685L172.265 88.46C172.497 89.2444 172.032 90.0287 171.248 90.2611C171.103 90.2902 170.986 90.3192 170.841 90.3192V90.2902Z" fill="black"/>
<path d="M149.315 90.8605C148.675 90.8605 148.094 90.4539 147.92 89.8148L145.858 82.5232C145.625 81.7389 146.09 80.9545 146.874 80.7221C147.63 80.5188 148.443 80.9545 148.675 81.7389L150.738 89.0304C150.97 89.8147 150.506 90.5992 149.721 90.8316C149.576 90.8606 149.46 90.8896 149.315 90.8896V90.8605Z" fill="black"/>
<path d="M171.683 65.2966C171.683 65.2966 169.33 62.1012 161.371 62.1302C153.411 62.1593 148.821 67.7949 148.821 67.7949C148.821 67.7949 148.153 82.2037 137.404 89.4081C126.656 96.6125 122.531 93.6495 122.531 93.6495L114.658 90.9188L108.79 79.502L131.275 54.8386L158.291 43.3058L171.683 58.1794V65.2676V65.2966Z" fill="black"/>
<path d="M160.121 118.145C157.856 118.145 151.929 117.535 149.024 111.463C148.676 110.737 148.995 109.866 149.693 109.517C150.419 109.169 151.29 109.488 151.639 110.185C154.311 115.763 160.47 115.211 160.732 115.182C161.545 115.095 162.242 115.676 162.329 116.489C162.416 117.274 161.835 118 161.051 118.087C160.993 118.087 160.673 118.116 160.151 118.116L160.121 118.145Z" fill="black"/>
<path d="M99.3771 104.492C93.7995 98.7978 89.1806 84.7666 90.3135 76.865L90.5459 75.2673C90.5459 75.2673 81.308 74.2506 84.3873 61.9334C87.4666 49.6162 103.183 33.1739 127.73 26.9863C152.277 20.8277 171.712 58.1859 171.712 58.1859C171.712 58.1859 151.202 57.1111 135.777 68.7602C120.351 80.4092 114.716 90.8962 114.716 90.8962L99.4062 104.463L99.3771 104.492Z" fill="#7C6053"/>
<path d="M153.556 167.233C134.209 167.233 119.597 157.501 118.841 157.007C118.173 156.542 117.999 155.642 118.464 155.003C118.928 154.334 119.829 154.16 120.468 154.625C120.671 154.77 142.197 169.063 166.716 162.701C167.5 162.497 168.284 162.962 168.488 163.747C168.691 164.531 168.226 165.315 167.442 165.519C162.649 166.768 157.972 167.262 153.556 167.262V167.233Z" fill="#F7734F"/>
<path d="M90.3141 78.345C90.0817 78.345 89.8202 78.2869 89.5878 78.1416C88.8906 77.7349 88.6582 76.8634 89.0359 76.1662L93.6548 68.0613C94.0615 67.3641 94.933 67.1317 95.6302 67.5094C96.3274 67.9161 96.5598 68.7876 96.1822 69.4848L91.5632 77.5896C91.3018 78.0544 90.8079 78.3159 90.3141 78.3159V78.345Z" fill="#FFBF69"/>
<path d="M216.072 245.233C216.072 245.233 215.927 245.349 215.869 245.407C215.084 245.988 214.3 246.569 213.486 247.092L206.05 210.024C205.904 209.24 206.398 208.456 207.183 208.31C207.967 208.136 208.751 208.659 208.897 209.443L216.072 245.233Z" fill="#F7734F"/>
</svg>
