<svg width="272" height="272" viewBox="0 0 272 272" fill="none" xmlns="http://www.w3.org/2000/svg">
<path d="M271.713 136.183C271.713 159.074 266.048 180.629 255.997 199.541C233.28 242.419 188.165 271.614 136.253 271.614C119.665 271.614 103.804 268.622 89.1337 263.16C81.726 260.43 74.6378 257.06 67.8982 253.08C53.1117 244.452 40.1264 233.094 29.6393 219.702C11.5702 196.694 0.821777 167.702 0.821777 136.183C0.821777 61.3792 61.4781 0.722778 136.253 0.722778C211.027 0.722778 271.713 61.3792 271.713 136.183Z" fill="#EDDDD6"/>
<path d="M184.969 210.058L89.1327 263.162C81.725 260.431 74.6368 257.061 67.8972 253.081C53.1107 244.453 40.1254 233.095 29.6383 219.703C39.6896 198.38 63.5396 161.341 111.53 149.634C121.233 147.281 129.803 147.514 137.298 149.576C173.145 159.366 184.969 210.058 184.969 210.058Z" fill="#7C6053"/>
<path d="M255.996 199.544C233.279 242.422 188.165 271.617 136.252 271.617C119.665 271.617 103.803 268.625 89.1332 263.164C81.7255 260.433 74.6373 257.063 67.8977 253.083C71.4418 212.907 75.1021 179.18 77.8327 172.847C82.6841 161.605 115.191 153.703 137.298 149.578C149.15 147.37 158.011 146.237 158.011 146.237C158.011 146.237 201.644 147.98 237.056 177.582C243.418 182.899 249.838 190.51 255.996 199.544Z" fill="#7C6053"/>
<path d="M104.646 41.1605C104.646 41.1605 89.2494 58.5905 97.7029 77.7925C106.186 96.9945 115.249 42.9035 115.249 42.9035L104.646 41.1605Z" fill="#ADA9C4"/>
<path d="M156.442 119.453L157.023 154.022C157.023 154.022 150.952 164.073 130.762 166.049C115.714 167.53 110.369 164.219 110.369 164.219L112.17 146.672L113.942 129.562L150.313 120.905L156.413 119.453H156.442Z" fill="#F27E64"/>
<path d="M150.342 120.899C150.284 121.858 155.92 124.821 155.368 126.099C147.931 143.5 120.188 152.244 111.502 153.174L113.942 129.556L150.313 120.899H150.342Z" fill="black"/>
<path d="M111.212 42.8718C106.477 46.7354 103.136 52.0516 101.19 57.8616C96.6581 71.1955 87.5655 102.337 93.5208 121.452C101.277 146.261 123.646 141.613 136.95 136.355C150.255 131.097 156.211 122.527 156.211 122.527C156.211 122.527 168.935 126.449 176.952 114.335C184.97 102.221 179.334 88.7707 172.043 85.8657C164.751 82.9607 156.385 88.4802 156.385 88.4802L162.631 75.3206C162.631 75.3206 137.444 21.4619 111.154 42.8718H111.212Z" fill="#F27E64"/>
<path d="M158.244 105.299C157.808 105.299 157.372 105.096 157.082 104.719C156.617 104.079 156.733 103.15 157.372 102.685L169.98 93.2729C170.619 92.8081 171.519 92.9242 172.013 93.5633C172.478 94.2024 172.362 95.132 171.723 95.5968L159.115 105.009C158.854 105.212 158.563 105.299 158.244 105.299Z" fill="black"/>
<path d="M172.449 104.87C172.449 104.87 172.216 104.87 172.1 104.841L161.787 102.372C161.003 102.198 160.538 101.414 160.713 100.629C160.887 99.8449 161.671 99.351 162.456 99.5544L172.768 102.024C173.553 102.198 174.017 102.982 173.843 103.767C173.698 104.435 173.088 104.87 172.42 104.87H172.449Z" fill="black"/>
<path d="M101.045 83.1648C101.045 83.1648 100.812 83.1648 100.696 83.1067C99.9118 82.9034 99.4469 82.119 99.6503 81.3346L101.684 73.3749C101.887 72.5906 102.671 72.1257 103.456 72.3291C104.24 72.5324 104.705 73.3168 104.502 74.1012L102.468 82.0609C102.294 82.729 101.713 83.1648 101.074 83.1648H101.045Z" fill="black"/>
<path d="M122.919 84.3262C122.919 84.3262 122.687 84.3262 122.57 84.2681C121.786 84.0648 121.321 83.2804 121.525 82.496L123.558 74.5364C123.761 73.752 124.546 73.2872 125.33 73.4906C126.114 73.6939 126.579 74.4783 126.376 75.2626L124.342 83.2223C124.168 83.8904 123.587 84.3262 122.948 84.3262H122.919Z" fill="black"/>
<path d="M99.7951 65.7653C99.0689 65.7653 98.4298 65.2134 98.3426 64.4581C98.2555 63.6737 98.8365 62.9475 99.6208 62.8603L106.186 62.1631C106.971 62.0759 107.697 62.6569 107.784 63.4413C107.871 64.2256 107.29 64.9519 106.506 65.0391L99.9404 65.7363C99.9404 65.7363 99.8242 65.7363 99.7951 65.7363V65.7653Z" fill="#6C6B7C"/>
<path d="M129.543 71.0535C129.368 71.0535 129.165 71.0245 128.991 70.9374L120.072 67.219C119.346 66.8994 118.998 66.057 119.288 65.3307C119.608 64.6045 120.45 64.2268 121.176 64.5463L130.095 68.2647C130.821 68.5843 131.17 69.4267 130.879 70.153C130.647 70.7049 130.095 71.0535 129.543 71.0535Z" fill="#6C6B7C"/>
<path d="M156.413 88.5082C156.413 88.5082 152.84 102.888 150.08 101.145C147.321 99.402 144.735 78.6603 146.798 69.3643C148.86 60.0683 150.342 55.4203 150.342 55.4203C150.342 55.4203 112.577 52.0505 102.642 43.1031C92.6777 34.1267 113.71 28.3457 135.207 32.4127C156.704 36.4797 165.186 44.5556 165.186 44.5556C165.186 44.5556 178.666 42.5512 183.691 50.7723C188.717 58.9934 177.271 90.2221 177.271 90.2221C177.271 90.2221 173.872 82.3787 156.413 88.5373V88.5082Z" fill="#ADA9C4"/>
<path d="M84.3987 103.359C84.3987 103.359 94.9439 91.6807 100.318 93.4237C105.692 95.1667 107.639 103.039 107.639 103.039C107.639 103.039 114.001 94.2081 121.031 96.7064C128.061 99.1756 143.138 100.105 143.283 102.545C143.428 104.986 139.071 105.857 139.071 105.857C139.071 105.857 103.601 109.953 84.3696 103.388L84.3987 103.359Z" fill="#ADA9C4"/>
<path d="M156.414 88.5135C156.414 88.5135 155.775 111.841 156.239 122.531C156.704 133.221 126.957 149.896 106.419 140.687C85.8802 131.478 91.516 104.578 91.516 104.578L109.817 106.263C109.817 106.263 114.03 103.881 118.823 102.893C123.616 101.906 130.007 104.52 130.007 104.52L156.414 88.5135Z" fill="#ADA9C4"/>
<path d="M112.694 111.577C111.967 111.577 111.328 111.025 111.241 110.269C111.154 109.485 111.735 108.759 112.519 108.672C112.577 108.672 118.794 107.945 121.06 103.414C121.409 102.687 122.28 102.397 123.006 102.774C123.733 103.123 124.023 103.995 123.645 104.721C120.653 110.676 113.129 111.547 112.81 111.577C112.752 111.577 112.694 111.577 112.665 111.577H112.694Z" fill="black"/>
<path d="M107 100.452C106.477 100.452 105.954 100.161 105.693 99.6385C100.58 89.4419 107.93 78.7224 108.249 78.2576C108.714 77.5895 109.615 77.4443 110.283 77.9091C110.951 78.3739 111.096 79.2744 110.631 79.9426C110.573 80.0297 103.979 89.7324 108.307 98.3603C108.656 99.0865 108.366 99.958 107.668 100.307C107.465 100.423 107.233 100.452 107.029 100.452H107Z" fill="black"/>
<path d="M121.321 167.614C111.212 167.614 103.397 165.639 102.7 165.464C101.916 165.261 101.451 164.477 101.654 163.692C101.858 162.908 102.642 162.443 103.426 162.647C103.775 162.734 139.361 171.652 157.14 150.591C157.663 149.981 158.592 149.894 159.173 150.417C159.783 150.939 159.871 151.84 159.348 152.45C148.977 164.738 133.493 167.585 121.321 167.585V167.614Z" fill="white"/>
</svg>
